<svg width="24" height="24" viewBox="0 0 24 24" fill="none" xmlns="http://www.w3.org/2000/svg">
<path d="M2.02038 9V9.6C2.18803 9.6 2.34803 9.52986 2.46163 9.40657C2.57523 9.28329 2.63207 9.1181 2.61838 8.95101L2.02038 9ZM2 9V8.4C1.66863 8.4 1.4 8.66863 1.4 9H2ZM12 21L11.7698 21.5541C11.9172 21.6153 12.0828 21.6153 12.2302 21.5541L12 21ZM22 9H22.6C22.6 8.66863 22.3314 8.4 22 8.4V9ZM21.9796 9L21.3816 8.95101C21.3679 9.1181 21.4248 9.28329 21.5384 9.40658C21.652 9.52986 21.812 9.6 21.9796 9.6V9ZM12.0204 8V8.6C12.3328 8.6 12.5929 8.36032 12.6184 8.04899L12.0204 8ZM11.9796 8L11.3816 8.04899C11.4071 8.36032 11.6672 8.6 11.9796 8.6V8ZM2.61838 8.95101C2.60622 8.80261 2.6 8.65218 2.6 8.5H1.4C1.4 8.68491 1.40756 8.86802 1.42239 9.04899L2.61838 8.95101ZM2 9.6H2.02038V8.4H2V9.6ZM12.2302 20.4459C10.6608 19.794 8.2279 18.1017 6.18584 15.9434C4.12856 13.769 2.6 11.2608 2.6 9H1.4C1.4 11.7392 3.20477 14.5387 5.31416 16.7681C7.43877 19.0137 10.0059 20.8214 11.7698 21.5541L12.2302 20.4459ZM21.4 9C21.4 11.2608 19.8714 13.769 17.8142 15.9434C15.7721 18.1017 13.3392 19.794 11.7698 20.4459L12.2302 21.5541C13.9941 20.8214 16.5612 19.0137 18.6858 16.7681C20.7952 14.5387 22.6 11.7392 22.6 9H21.4ZM21.9796 9.6H22V8.4H21.9796V9.6ZM21.4 8.5C21.4 8.65218 21.3938 8.80261 21.3816 8.95101L22.5776 9.04899C22.5924 8.86803 22.6 8.68491 22.6 8.5H21.4ZM17 3.6C19.3775 3.6 21.4 5.73871 21.4 8.5H22.6C22.6 5.18616 20.1453 2.4 17 2.4V3.6ZM12.6184 8.04899C12.8267 5.50582 14.7531 3.6 17 3.6V2.4C14.0305 2.4 11.6733 4.88768 11.4224 7.95101L12.6184 8.04899ZM11.9796 8.6H12.0204V7.4H11.9796V8.6ZM7 3.6C9.24691 3.6 11.1733 5.50582 11.3816 8.04899L12.5776 7.95101C12.3267 4.88768 9.96949 2.4 7 2.4V3.6ZM2.6 8.5C2.6 5.73871 4.62248 3.6 7 3.6V2.4C3.85467 2.4 1.4 5.18616 1.4 8.5H2.6Z" fill="#215374"/>
</svg>
