<svg width="555" height="190" viewBox="0 0 555 190" fill="none" xmlns="http://www.w3.org/2000/svg">
<path d="M554.585 140.324C551.639 143.895 547.981 145.68 543.613 145.68C541.568 145.68 539.713 145.351 538.049 144.692C536.385 143.999 534.947 143.045 533.733 141.832C532.555 140.584 531.636 139.111 530.977 137.412C530.319 135.679 529.989 133.772 529.989 131.692C529.989 129.577 530.336 127.619 531.029 125.816C531.723 124.013 532.693 122.471 533.941 121.188C535.224 119.905 536.732 118.9 538.465 118.172C540.233 117.444 542.157 117.08 544.237 117.08C547.6 117.08 550.2 117.999 552.037 119.836C553.875 121.639 554.793 124.239 554.793 127.636C554.793 128.121 554.689 128.416 554.481 128.52C554.308 128.624 553.875 128.676 553.181 128.676H536.073C536.004 128.953 535.952 129.3 535.917 129.716C535.883 130.097 535.865 130.531 535.865 131.016C535.865 132.819 536.073 134.465 536.489 135.956C536.94 137.412 537.564 138.66 538.361 139.7C539.193 140.74 540.164 141.555 541.273 142.144C542.417 142.699 543.683 142.976 545.069 142.976C546.525 142.976 547.877 142.664 549.125 142.04C550.373 141.381 551.656 140.324 552.973 138.868L554.585 140.324ZM546.005 126.284C546.699 126.284 547.253 126.267 547.669 126.232C548.085 126.197 548.397 126.128 548.605 126.024C548.813 125.92 548.952 125.781 549.021 125.608C549.091 125.4 549.125 125.14 549.125 124.828C549.125 123.233 548.605 121.968 547.565 121.032C546.56 120.061 545.173 119.576 543.405 119.576C539.661 119.576 537.339 121.812 536.437 126.284H546.005Z" fill="#215374"/>
<path d="M514.763 136.892C514.763 138.313 514.797 139.44 514.867 140.272C514.936 141.104 515.109 141.745 515.387 142.196C515.699 142.612 516.132 142.889 516.687 143.028C517.241 143.167 518.021 143.271 519.027 143.34V145.16H505.195V143.34C506.2 143.305 506.997 143.219 507.587 143.08C508.176 142.907 508.627 142.612 508.939 142.196C509.251 141.78 509.441 141.191 509.511 140.428C509.615 139.631 509.667 138.573 509.667 137.256V131.172C509.667 128.815 509.632 126.977 509.563 125.66C509.528 124.343 509.355 123.372 509.043 122.748C508.765 122.124 508.315 121.76 507.691 121.656C507.067 121.517 506.2 121.448 505.091 121.448V119.628L514.191 117.652L514.919 124.1H515.127C515.577 123.06 516.132 122.107 516.791 121.24C517.484 120.373 518.229 119.645 519.027 119.056C519.824 118.432 520.656 117.947 521.523 117.6C522.389 117.253 523.273 117.08 524.175 117.08C525.284 117.08 526.151 117.357 526.775 117.912C527.433 118.432 527.763 119.143 527.763 120.044C527.763 120.876 527.503 121.535 526.983 122.02C526.463 122.471 525.717 122.696 524.747 122.696C524.192 122.696 523.724 122.627 523.343 122.488C522.961 122.349 522.615 122.211 522.303 122.072C522.025 121.899 521.748 121.743 521.471 121.604C521.228 121.465 520.951 121.396 520.639 121.396C519.703 121.396 518.767 122.003 517.831 123.216C516.895 124.395 516.167 125.903 515.647 127.74C515.369 128.745 515.144 129.889 514.971 131.172C514.832 132.42 514.763 133.737 514.763 135.124V136.892Z" fill="#215374"/>
<path d="M486.095 117.08C488.071 117.08 489.943 117.444 491.711 118.172C493.479 118.865 495.022 119.836 496.339 121.084C497.691 122.332 498.749 123.823 499.511 125.556C500.309 127.255 500.707 129.127 500.707 131.172C500.707 133.287 500.309 135.228 499.511 136.996C498.749 138.764 497.691 140.289 496.339 141.572C495.022 142.855 493.479 143.86 491.711 144.588C489.943 145.316 488.071 145.68 486.095 145.68C484.154 145.68 482.299 145.333 480.531 144.64C478.798 143.912 477.273 142.907 475.955 141.624C474.638 140.341 473.598 138.816 472.835 137.048C472.073 135.245 471.691 133.287 471.691 131.172C471.691 129.127 472.073 127.237 472.835 125.504C473.598 123.771 474.638 122.28 475.955 121.032C477.273 119.784 478.798 118.813 480.531 118.12C482.299 117.427 484.154 117.08 486.095 117.08ZM486.095 119.576C484.813 119.576 483.634 119.853 482.559 120.408C481.519 120.963 480.618 121.76 479.855 122.8C479.127 123.805 478.555 125.036 478.139 126.492C477.758 127.913 477.567 129.491 477.567 131.224C477.567 133.027 477.758 134.656 478.139 136.112C478.555 137.568 479.127 138.816 479.855 139.856C480.618 140.861 481.519 141.641 482.559 142.196C483.599 142.751 484.778 143.028 486.095 143.028C487.413 143.028 488.609 142.751 489.683 142.196C490.758 141.641 491.677 140.844 492.439 139.804C493.202 138.764 493.791 137.516 494.207 136.06C494.623 134.604 494.831 132.992 494.831 131.224C494.831 129.491 494.623 127.913 494.207 126.492C493.791 125.071 493.202 123.857 492.439 122.852C491.677 121.812 490.758 121.015 489.683 120.46C488.609 119.871 487.413 119.576 486.095 119.576Z" fill="#215374"/>
<path d="M451.623 120.876V118.952C453.46 117.877 454.899 116.803 455.939 115.728C456.979 114.653 457.776 113.371 458.331 111.88H459.839V118.432H466.807V120.876H459.839V136.684C459.839 137.897 459.891 138.92 459.995 139.752C460.134 140.584 460.342 141.26 460.619 141.78C460.896 142.265 461.26 142.612 461.711 142.82C462.162 143.028 462.734 143.132 463.427 143.132C464.294 143.132 465.022 142.959 465.611 142.612C466.235 142.231 466.842 141.607 467.431 140.74L468.731 141.728C468.246 143.011 467.396 143.999 466.183 144.692C465.004 145.351 463.531 145.68 461.763 145.68C459.475 145.68 457.724 145.143 456.511 144.068C455.332 142.959 454.743 141.381 454.743 139.336V120.876H451.623Z" fill="#215374"/>
<path d="M419.297 132.94H421.221C421.464 134.5 421.915 135.904 422.573 137.152C423.267 138.4 424.116 139.457 425.121 140.324C426.161 141.191 427.34 141.867 428.657 142.352C430.009 142.803 431.465 143.028 433.025 143.028C435.591 143.028 437.619 142.421 439.109 141.208C440.6 139.995 441.345 138.348 441.345 136.268C441.345 135.401 441.189 134.604 440.877 133.876C440.6 133.148 440.115 132.455 439.421 131.796C438.728 131.103 437.792 130.427 436.613 129.768C435.469 129.109 434.013 128.399 432.245 127.636C430.096 126.7 428.293 125.799 426.837 124.932C425.381 124.065 424.22 123.164 423.353 122.228C422.487 121.292 421.863 120.304 421.481 119.264C421.135 118.189 420.961 116.976 420.961 115.624C420.961 114.029 421.239 112.556 421.793 111.204C422.383 109.852 423.197 108.691 424.237 107.72C425.277 106.715 426.508 105.952 427.929 105.432C429.351 104.877 430.911 104.6 432.609 104.6C434.135 104.6 435.556 104.843 436.873 105.328C438.191 105.813 439.525 106.593 440.877 107.668L442.229 105.328H443.425L443.997 115.676H442.073C441.241 112.833 440.028 110.719 438.433 109.332C436.873 107.945 434.984 107.252 432.765 107.252C430.651 107.252 428.969 107.772 427.721 108.812C426.473 109.852 425.849 111.256 425.849 113.024C425.849 113.856 425.988 114.619 426.265 115.312C426.543 115.971 426.993 116.612 427.617 117.236C428.241 117.825 429.056 118.432 430.061 119.056C431.067 119.645 432.315 120.269 433.805 120.928C436.371 122.072 438.503 123.147 440.201 124.152C441.9 125.123 443.252 126.111 444.257 127.116C445.263 128.087 445.973 129.127 446.389 130.236C446.805 131.311 447.013 132.524 447.013 133.876C447.013 135.609 446.667 137.204 445.973 138.66C445.28 140.116 444.309 141.364 443.061 142.404C441.813 143.444 440.323 144.259 438.589 144.848C436.856 145.403 434.949 145.68 432.869 145.68C430.893 145.68 429.108 145.403 427.513 144.848C425.953 144.293 424.359 143.357 422.729 142.04L421.273 144.588H420.077L419.297 132.94Z" fill="#215374"/>
<path d="M398.687 140.324C395.74 143.895 392.083 145.68 387.715 145.68C385.67 145.68 383.815 145.351 382.151 144.692C380.487 143.999 379.048 143.045 377.835 141.832C376.656 140.584 375.738 139.111 375.079 137.412C374.42 135.679 374.091 133.772 374.091 131.692C374.091 129.577 374.438 127.619 375.131 125.816C375.824 124.013 376.795 122.471 378.043 121.188C379.326 119.905 380.834 118.9 382.567 118.172C384.335 117.444 386.259 117.08 388.339 117.08C391.702 117.08 394.302 117.999 396.139 119.836C397.976 121.639 398.895 124.239 398.895 127.636C398.895 128.121 398.791 128.416 398.583 128.52C398.41 128.624 397.976 128.676 397.283 128.676H380.175C380.106 128.953 380.054 129.3 380.019 129.716C379.984 130.097 379.967 130.531 379.967 131.016C379.967 132.819 380.175 134.465 380.591 135.956C381.042 137.412 381.666 138.66 382.463 139.7C383.295 140.74 384.266 141.555 385.375 142.144C386.519 142.699 387.784 142.976 389.171 142.976C390.627 142.976 391.979 142.664 393.227 142.04C394.475 141.381 395.758 140.324 397.075 138.868L398.687 140.324ZM390.107 126.284C390.8 126.284 391.355 126.267 391.771 126.232C392.187 126.197 392.499 126.128 392.707 126.024C392.915 125.92 393.054 125.781 393.123 125.608C393.192 125.4 393.227 125.14 393.227 124.828C393.227 123.233 392.707 121.968 391.667 121.032C390.662 120.061 389.275 119.576 387.507 119.576C383.763 119.576 381.44 121.812 380.539 126.284H390.107Z" fill="#215374"/>
<path d="M346.923 136.996C346.923 138.417 346.958 139.544 347.027 140.376C347.097 141.173 347.27 141.797 347.547 142.248C347.859 142.664 348.293 142.941 348.847 143.08C349.437 143.219 350.234 143.323 351.239 143.392V145.16H337.615V143.392C338.586 143.323 339.349 143.219 339.903 143.08C340.493 142.941 340.943 142.664 341.255 142.248C341.567 141.832 341.758 141.243 341.827 140.48C341.931 139.717 341.983 138.677 341.983 137.36V130.444C341.983 126.319 341.879 123.805 341.671 122.904C341.567 122.453 341.429 122.089 341.255 121.812C341.117 121.5 340.891 121.275 340.579 121.136C340.267 120.963 339.869 120.859 339.383 120.824C338.898 120.755 338.274 120.72 337.511 120.72V119.056L345.831 117.08L346.455 122.228H346.663C347.981 120.599 349.523 119.333 351.291 118.432C353.059 117.531 354.983 117.08 357.063 117.08C358.658 117.08 360.114 117.34 361.431 117.86C362.749 118.38 363.754 119.091 364.447 119.992C365.037 120.789 365.453 121.829 365.695 123.112C365.938 124.36 366.059 126.093 366.059 128.312V136.996C366.059 138.417 366.094 139.544 366.163 140.376C366.267 141.173 366.458 141.797 366.735 142.248C367.013 142.664 367.429 142.941 367.983 143.08C368.573 143.219 369.335 143.323 370.271 143.392V145.16H356.803V143.392C357.774 143.357 358.537 143.271 359.091 143.132C359.681 142.959 360.114 142.664 360.391 142.248C360.703 141.832 360.894 141.243 360.963 140.48C361.067 139.683 361.119 138.643 361.119 137.36V130.496C361.119 128.52 361.015 126.856 360.807 125.504C360.599 124.152 360.253 123.06 359.767 122.228C359.317 121.396 358.71 120.807 357.947 120.46C357.185 120.079 356.266 119.888 355.191 119.888C353.631 119.888 352.193 120.304 350.875 121.136C349.593 121.933 348.587 123.043 347.859 124.464C347.686 124.811 347.53 125.14 347.391 125.452C347.287 125.764 347.201 126.128 347.131 126.544C347.062 126.96 347.01 127.445 346.975 128C346.941 128.52 346.923 129.196 346.923 130.028V136.996Z" fill="#215374"/>
<path d="M329.825 136.892C329.825 138.244 329.877 139.336 329.981 140.168C330.119 140.965 330.362 141.607 330.709 142.092C331.055 142.543 331.541 142.855 332.165 143.028C332.789 143.201 333.621 143.305 334.661 143.34V145.16H319.737V143.34C320.777 143.305 321.626 143.201 322.285 143.028C322.943 142.82 323.446 142.508 323.793 142.092C324.174 141.641 324.417 141.035 324.521 140.272C324.659 139.475 324.729 138.469 324.729 137.256V130.6C324.729 128.589 324.694 126.943 324.625 125.66C324.59 124.343 324.503 123.441 324.365 122.956C324.191 122.159 323.793 121.621 323.169 121.344C322.545 121.032 321.366 120.876 319.633 120.876V119.056L329.825 117.08V136.892ZM323.845 106.524C323.845 105.623 324.157 104.86 324.781 104.236C325.405 103.612 326.167 103.3 327.069 103.3C327.97 103.3 328.733 103.612 329.357 104.236C329.981 104.86 330.293 105.623 330.293 106.524C330.293 107.425 329.981 108.188 329.357 108.812C328.733 109.436 327.97 109.748 327.069 109.748C326.167 109.748 325.405 109.436 324.781 108.812C324.157 108.188 323.845 107.425 323.845 106.524Z" fill="#215374"/>
<path d="M311.927 137.048C311.927 138.365 311.979 139.423 312.083 140.22C312.187 141.017 312.395 141.641 312.707 142.092C313.053 142.543 313.521 142.855 314.111 143.028C314.735 143.201 315.549 143.305 316.555 143.34V145.16H302.203V143.34C303.243 143.305 304.075 143.201 304.699 143.028C305.323 142.82 305.808 142.508 306.155 142.092C306.536 141.676 306.779 141.104 306.883 140.376C307.021 139.613 307.091 138.625 307.091 137.412V115C307.091 113.128 307.056 111.568 306.987 110.32C306.952 109.037 306.883 108.171 306.779 107.72C306.605 106.923 306.189 106.385 305.531 106.108C304.907 105.831 303.763 105.692 302.099 105.692V103.924L311.927 102V137.048Z" fill="#215374"/>
<path d="M276.439 136.996C276.439 138.417 276.474 139.544 276.543 140.376C276.612 141.173 276.786 141.797 277.063 142.248C277.375 142.664 277.808 142.941 278.363 143.08C278.952 143.219 279.75 143.323 280.755 143.392V145.16H267.131V143.392C268.102 143.323 268.864 143.219 269.419 143.08C270.008 142.941 270.459 142.664 270.771 142.248C271.083 141.832 271.274 141.243 271.343 140.48C271.447 139.717 271.499 138.677 271.499 137.36V130.444C271.499 126.319 271.395 123.805 271.187 122.904C271.083 122.453 270.944 122.089 270.771 121.812C270.632 121.5 270.407 121.275 270.095 121.136C269.783 120.963 269.384 120.859 268.899 120.824C268.414 120.755 267.79 120.72 267.027 120.72V119.056L275.347 117.08L275.971 122.228H276.179C277.496 120.599 279.039 119.333 280.807 118.432C282.575 117.531 284.499 117.08 286.579 117.08C288.174 117.08 289.63 117.34 290.947 117.86C292.264 118.38 293.27 119.091 293.963 119.992C294.552 120.789 294.968 121.829 295.211 123.112C295.454 124.36 295.575 126.093 295.575 128.312V136.996C295.575 138.417 295.61 139.544 295.679 140.376C295.783 141.173 295.974 141.797 296.251 142.248C296.528 142.664 296.944 142.941 297.499 143.08C298.088 143.219 298.851 143.323 299.787 143.392V145.16H286.319V143.392C287.29 143.357 288.052 143.271 288.607 143.132C289.196 142.959 289.63 142.664 289.907 142.248C290.219 141.832 290.41 141.243 290.479 140.48C290.583 139.683 290.635 138.643 290.635 137.36V130.496C290.635 128.52 290.531 126.856 290.323 125.504C290.115 124.152 289.768 123.06 289.283 122.228C288.832 121.396 288.226 120.807 287.463 120.46C286.7 120.079 285.782 119.888 284.707 119.888C283.147 119.888 281.708 120.304 280.391 121.136C279.108 121.933 278.103 123.043 277.375 124.464C277.202 124.811 277.046 125.14 276.907 125.452C276.803 125.764 276.716 126.128 276.647 126.544C276.578 126.96 276.526 127.445 276.491 128C276.456 128.52 276.439 129.196 276.439 130.028V136.996Z" fill="#215374"/>
<path d="M240.596 104.6C243.647 104.6 246.489 105.137 249.124 106.212C251.759 107.287 254.047 108.76 255.988 110.632C257.929 112.504 259.455 114.705 260.564 117.236C261.673 119.767 262.228 122.505 262.228 125.452C262.228 128.26 261.656 130.895 260.512 133.356C259.403 135.817 257.877 137.967 255.936 139.804C253.995 141.607 251.707 143.045 249.072 144.12C246.437 145.16 243.612 145.68 240.596 145.68C237.58 145.68 234.755 145.16 232.12 144.12C229.485 143.045 227.197 141.607 225.256 139.804C223.315 137.967 221.772 135.817 220.628 133.356C219.519 130.895 218.964 128.26 218.964 125.452C218.964 122.505 219.519 119.767 220.628 117.236C221.737 114.705 223.263 112.504 225.204 110.632C227.145 108.76 229.433 107.287 232.068 106.212C234.703 105.137 237.545 104.6 240.596 104.6ZM240.596 142.82C242.884 142.82 244.929 142.421 246.732 141.624C248.569 140.827 250.129 139.683 251.412 138.192C252.729 136.701 253.735 134.899 254.428 132.784C255.121 130.635 255.468 128.243 255.468 125.608C255.468 122.835 255.121 120.339 254.428 118.12C253.735 115.867 252.747 113.96 251.464 112.4C250.181 110.805 248.621 109.592 246.784 108.76C244.947 107.893 242.884 107.46 240.596 107.46C238.308 107.46 236.245 107.893 234.408 108.76C232.571 109.592 231.011 110.805 229.728 112.4C228.445 113.96 227.457 115.867 226.764 118.12C226.071 120.339 225.724 122.835 225.724 125.608C225.724 128.243 226.071 130.635 226.764 132.784C227.457 134.899 228.445 136.701 229.728 138.192C231.011 139.683 232.571 140.827 234.408 141.624C236.245 142.421 238.308 142.82 240.596 142.82Z" fill="#215374"/>
<path d="M499.383 72.892C499.383 74.244 499.435 75.336 499.539 76.168C499.678 76.9653 499.921 77.6067 500.267 78.092C500.614 78.5427 501.099 78.8547 501.723 79.028C502.347 79.2013 503.179 79.3053 504.219 79.34V81.16H489.295V79.34C490.335 79.3053 491.185 79.2013 491.843 79.028C492.502 78.82 493.005 78.508 493.351 78.092C493.733 77.6413 493.975 77.0347 494.079 76.272C494.218 75.4747 494.287 74.4693 494.287 73.256V66.6C494.287 64.5893 494.253 62.9427 494.183 61.66C494.149 60.3427 494.062 59.4413 493.923 58.956C493.75 58.1587 493.351 57.6213 492.727 57.344C492.103 57.032 490.925 56.876 489.191 56.876V55.056L499.383 53.08V72.892ZM493.403 42.524C493.403 41.6227 493.715 40.86 494.339 40.236C494.963 39.612 495.726 39.3 496.627 39.3C497.529 39.3 498.291 39.612 498.915 40.236C499.539 40.86 499.851 41.6227 499.851 42.524C499.851 43.4253 499.539 44.188 498.915 44.812C498.291 45.436 497.529 45.748 496.627 45.748C495.726 45.748 494.963 45.436 494.339 44.812C493.715 44.188 493.403 43.4253 493.403 42.524Z" fill="#215374"/>
<path d="M462.543 72.892C462.543 74.3133 462.577 75.44 462.647 76.272C462.716 77.104 462.889 77.7453 463.167 78.196C463.479 78.612 463.912 78.8893 464.467 79.028C465.021 79.1667 465.801 79.2707 466.807 79.34V81.16H452.975V79.34C453.98 79.2707 454.777 79.1667 455.367 79.028C455.956 78.8893 456.407 78.612 456.719 78.196C457.031 77.78 457.221 77.1907 457.291 76.428C457.395 75.6307 457.447 74.5733 457.447 73.256V51.468C457.447 49.4227 457.412 47.7933 457.343 46.58C457.308 45.3667 457.221 44.448 457.083 43.824C457.013 43.408 456.892 43.0787 456.719 42.836C456.58 42.5587 456.355 42.3507 456.043 42.212C455.731 42.0387 455.315 41.9173 454.795 41.848C454.275 41.7787 453.633 41.744 452.871 41.744V39.976L462.439 38V57.812H462.647C463.167 57.1187 463.808 56.4947 464.571 55.94C465.368 55.3507 466.217 54.848 467.119 54.432C468.02 54.016 468.956 53.6867 469.927 53.444C470.932 53.2013 471.903 53.08 472.839 53.08C474.433 53.08 475.889 53.3573 477.207 53.912C478.559 54.4667 479.599 55.212 480.327 56.148C480.916 56.9453 481.349 58.0027 481.627 59.32C481.904 60.6027 482.043 62.3533 482.043 64.572V72.892C482.043 74.3133 482.077 75.44 482.147 76.272C482.216 77.0693 482.389 77.6933 482.667 78.144C482.979 78.5947 483.412 78.8893 483.967 79.028C484.521 79.1667 485.301 79.2707 486.307 79.34V81.16H472.527V79.34C473.497 79.3053 474.277 79.2187 474.867 79.08C475.456 78.9067 475.889 78.612 476.167 78.196C476.479 77.78 476.669 77.1907 476.739 76.428C476.843 75.6307 476.895 74.5733 476.895 73.256V66.704C476.895 62.8213 476.444 60.0653 475.543 58.436C474.641 56.772 473.133 55.94 471.019 55.94C469.389 55.94 467.899 56.356 466.547 57.188C465.229 58.02 464.189 59.164 463.427 60.62C463.253 61.0013 463.097 61.3653 462.959 61.712C462.855 62.024 462.768 62.388 462.699 62.804C462.629 63.22 462.577 63.7053 462.543 64.26C462.543 64.78 462.543 65.4387 462.543 66.236V72.892Z" fill="#215374"/>
<path d="M450.16 76.844C448.912 78.3693 447.3 79.5653 445.324 80.432C443.348 81.264 441.216 81.68 438.928 81.68C437.09 81.68 435.392 81.3507 433.832 80.692C432.306 79.9987 430.989 79.0453 429.88 77.832C428.77 76.584 427.904 75.0933 427.28 73.36C426.69 71.6267 426.396 69.7027 426.396 67.588C426.396 65.3693 426.742 63.376 427.436 61.608C428.129 59.8053 429.1 58.28 430.348 57.032C431.63 55.7493 433.156 54.7787 434.924 54.12C436.726 53.4267 438.702 53.08 440.852 53.08C442.204 53.08 443.434 53.2013 444.544 53.444C445.653 53.652 446.606 53.964 447.404 54.38C448.236 54.7613 448.877 55.2467 449.328 55.836C449.778 56.3907 450.004 56.9973 450.004 57.656C450.004 58.3493 449.778 58.8867 449.328 59.268C448.877 59.6493 448.253 59.84 447.456 59.84C446.832 59.84 446.312 59.7187 445.896 59.476C445.48 59.1987 444.942 58.6093 444.284 57.708C443.59 56.9107 442.914 56.356 442.256 56.044C441.632 55.6973 440.817 55.524 439.812 55.524C437.35 55.524 435.478 56.4773 434.196 58.384C432.948 60.2907 432.324 63.0987 432.324 66.808C432.324 70.7947 433.017 73.828 434.404 75.908C435.825 77.9533 437.888 78.976 440.592 78.976C442.048 78.976 443.417 78.6987 444.7 78.144C445.982 77.5547 447.282 76.6187 448.6 75.336L450.16 76.844Z" fill="#215374"/>
<path d="M413.088 61.92C413.088 60.4987 413.053 59.3893 412.984 58.592C412.914 57.76 412.724 57.136 412.412 56.72C412.134 56.2693 411.701 55.9747 411.112 55.836C410.557 55.6627 409.777 55.524 408.772 55.42V53.6H418.184V69.564C418.184 71.54 418.201 73.152 418.236 74.4C418.305 75.648 418.392 76.584 418.496 77.208C418.565 77.6587 418.669 78.0227 418.808 78.3C418.981 78.5427 419.224 78.7507 419.536 78.924C419.848 79.0627 420.246 79.1667 420.732 79.236C421.252 79.2707 421.91 79.288 422.708 79.288V81.108L414.128 81.732L413.556 75.492H413.348C412.03 77.6413 410.505 79.2187 408.772 80.224C407.073 81.1947 405.288 81.68 403.416 81.68C401.96 81.68 400.538 81.4027 399.152 80.848C397.8 80.2933 396.777 79.548 396.084 78.612C395.494 77.8493 395.061 76.792 394.784 75.44C394.541 74.088 394.42 72.3373 394.42 70.188V61.92C394.42 60.4987 394.385 59.3893 394.316 58.592C394.246 57.76 394.056 57.136 393.744 56.72C393.466 56.2693 393.033 55.9747 392.444 55.836C391.889 55.6627 391.109 55.524 390.104 55.42V53.6H399.516V67.796C399.516 71.5747 399.949 74.3133 400.816 76.012C401.717 77.7107 403.138 78.56 405.08 78.56C408.13 78.56 410.505 76.5667 412.204 72.58C412.377 72.164 412.516 71.7827 412.62 71.436C412.724 71.0893 412.81 70.708 412.88 70.292C412.949 69.876 413.001 69.408 413.036 68.888C413.07 68.368 413.088 67.744 413.088 67.016V61.92Z" fill="#215374"/>
<path d="M372.131 69.98C373.587 69.98 374.713 69.3213 375.511 68.004C376.343 66.6867 376.759 64.832 376.759 62.44C376.759 60.0827 376.343 58.2627 375.511 56.98C374.713 55.6627 373.569 55.004 372.079 55.004C370.588 55.004 369.392 55.6627 368.491 56.98C367.624 58.2973 367.191 60.1 367.191 62.388C367.191 64.676 367.641 66.5133 368.543 67.9C369.444 69.2867 370.64 69.98 372.131 69.98ZM369.271 76.064C370.103 76.1333 370.865 76.2027 371.559 76.272C372.252 76.3413 372.928 76.4107 373.587 76.48C374.28 76.5493 374.956 76.636 375.615 76.74C376.308 76.844 377.053 76.948 377.851 77.052C380.347 77.4333 382.34 78.404 383.831 79.964C385.356 81.4893 386.119 83.4133 386.119 85.736C386.119 88.648 384.957 90.8667 382.635 92.392C380.347 93.9173 377.019 94.68 372.651 94.68C370.709 94.68 368.924 94.5067 367.295 94.16C365.7 93.8133 364.331 93.3107 363.187 92.652C362.043 92.028 361.141 91.2653 360.483 90.364C359.859 89.4627 359.547 88.4747 359.547 87.4C359.547 86.672 359.668 85.996 359.911 85.372C360.153 84.748 360.483 84.1933 360.899 83.708C361.315 83.2573 361.8 82.8933 362.355 82.616C362.944 82.3387 363.551 82.2 364.175 82.2C365.353 82.2 366.411 82.564 367.347 83.292C366.411 83.5 365.648 84.0027 365.059 84.8C364.469 85.632 364.175 86.568 364.175 87.608C364.175 89.1333 364.92 90.312 366.411 91.144C367.936 91.976 370.085 92.392 372.859 92.392C378.787 92.392 381.751 90.572 381.751 86.932C381.751 85.5453 381.283 84.384 380.347 83.448C379.411 82.5467 378.301 82.0093 377.019 81.836C376.187 81.732 375.32 81.6107 374.419 81.472C373.552 81.368 372.685 81.264 371.819 81.16C370.987 81.056 370.207 80.9693 369.479 80.9C368.751 80.8307 368.161 80.7613 367.711 80.692C365.769 80.484 364.296 79.964 363.291 79.132C362.285 78.3 361.783 77.156 361.783 75.7C361.783 74.4867 362.285 73.412 363.291 72.476C364.296 71.54 365.561 70.9507 367.087 70.708V70.5C366.324 70.188 365.613 69.7547 364.955 69.2C364.296 68.6107 363.724 67.952 363.239 67.224C362.788 66.496 362.424 65.716 362.147 64.884C361.869 64.0173 361.731 63.1333 361.731 62.232C361.731 60.9147 361.973 59.7013 362.459 58.592C362.979 57.4827 363.689 56.5293 364.591 55.732C365.527 54.9 366.619 54.2587 367.867 53.808C369.115 53.3227 370.484 53.08 371.975 53.08C373.5 53.08 374.939 53.3227 376.291 53.808C377.643 54.2587 378.804 54.9347 379.775 55.836C380.953 54.8653 381.993 54.172 382.895 53.756C383.796 53.3053 384.645 53.08 385.443 53.08C386.691 53.08 387.679 53.3747 388.407 53.964C389.169 54.5187 389.551 55.2813 389.551 56.252C389.551 56.8413 389.343 57.3093 388.927 57.656C388.545 58.0027 388.06 58.176 387.471 58.176C386.985 58.176 386.587 58.0893 386.275 57.916C385.963 57.7427 385.668 57.5693 385.391 57.396C385.148 57.188 384.888 56.9973 384.611 56.824C384.333 56.6507 383.987 56.564 383.571 56.564C382.739 56.564 381.889 56.8587 381.023 57.448C381.855 58.7307 382.271 60.3427 382.271 62.284C382.271 65.2307 381.352 67.5533 379.515 69.252C377.677 70.916 374.921 71.8867 371.247 72.164C369.132 72.3373 367.659 72.5627 366.827 72.84C365.995 73.1173 365.579 73.62 365.579 74.348C365.579 74.9027 365.891 75.3187 366.515 75.596C367.139 75.8387 368.057 75.9947 369.271 76.064Z" fill="#215374"/>
<path d="M352.016 72.892C352.016 74.244 352.068 75.336 352.172 76.168C352.311 76.9653 352.553 77.6067 352.9 78.092C353.247 78.5427 353.732 78.8547 354.356 79.028C354.98 79.2013 355.812 79.3053 356.852 79.34V81.16H341.928V79.34C342.968 79.3053 343.817 79.2013 344.476 79.028C345.135 78.82 345.637 78.508 345.984 78.092C346.365 77.6413 346.608 77.0347 346.712 76.272C346.851 75.4747 346.92 74.4693 346.92 73.256V66.6C346.92 64.5893 346.885 62.9427 346.816 61.66C346.781 60.3427 346.695 59.4413 346.556 58.956C346.383 58.1587 345.984 57.6213 345.36 57.344C344.736 57.032 343.557 56.876 341.824 56.876V55.056L352.016 53.08V72.892ZM346.036 42.524C346.036 41.6227 346.348 40.86 346.972 40.236C347.596 39.612 348.359 39.3 349.26 39.3C350.161 39.3 350.924 39.612 351.548 40.236C352.172 40.86 352.484 41.6227 352.484 42.524C352.484 43.4253 352.172 44.188 351.548 44.812C350.924 45.436 350.161 45.748 349.26 45.748C348.359 45.748 347.596 45.436 346.972 44.812C346.348 44.188 346.036 43.4253 346.036 42.524Z" fill="#215374"/>
<path d="M326.213 79.34C327.357 79.34 328.137 79.288 328.553 79.184C329.004 79.08 329.229 78.9413 329.229 78.768C329.195 78.4907 328.917 77.988 328.397 77.26C327.877 76.532 327.201 75.6653 326.369 74.66L320.857 68.004L318.933 69.824V72.892C318.933 74.244 318.985 75.336 319.089 76.168C319.228 76.9653 319.453 77.6067 319.765 78.092C320.112 78.5427 320.597 78.8547 321.221 79.028C321.88 79.2013 322.729 79.3053 323.769 79.34V81.16H309.001V79.34C310.041 79.3053 310.873 79.2013 311.497 79.028C312.156 78.8547 312.659 78.5427 313.005 78.092C313.387 77.6413 313.647 77.0347 313.785 76.272C313.924 75.5093 313.993 74.504 313.993 73.256V51.468C313.993 48.8333 313.959 46.84 313.889 45.488C313.855 44.136 313.681 43.2173 313.369 42.732C313.057 42.2467 312.537 41.9693 311.809 41.9C311.081 41.796 310.111 41.744 308.897 41.744V39.976L318.933 38V66.548L323.769 61.816C325.329 60.256 326.491 59.112 327.253 58.384C328.016 57.6213 328.397 57.0493 328.397 56.668C328.397 56.2867 328.033 55.992 327.305 55.784C326.577 55.5413 325.537 55.42 324.185 55.42V53.6H337.705V55.42C337.047 55.42 336.475 55.4547 335.989 55.524C335.504 55.5933 335.036 55.732 334.585 55.94C334.169 56.148 333.719 56.4427 333.233 56.824C332.748 57.1707 332.193 57.6213 331.569 58.176L324.081 64.832L334.377 76.48C334.863 77.0693 335.296 77.5547 335.677 77.936C336.093 78.2827 336.492 78.56 336.873 78.768C337.289 78.976 337.723 79.132 338.173 79.236C338.659 79.3053 339.231 79.34 339.889 79.34V81.16H326.213V79.34Z" fill="#215374"/>
<path d="M305.453 76.324C302.506 79.8947 298.849 81.68 294.481 81.68C292.435 81.68 290.581 81.3507 288.917 80.692C287.253 79.9987 285.814 79.0453 284.601 77.832C283.422 76.584 282.503 75.1107 281.845 73.412C281.186 71.6787 280.857 69.772 280.857 67.692C280.857 65.5773 281.203 63.6187 281.897 61.816C282.59 60.0133 283.561 58.4707 284.809 57.188C286.091 55.9053 287.599 54.9 289.333 54.172C291.101 53.444 293.025 53.08 295.105 53.08C298.467 53.08 301.067 53.9987 302.905 55.836C304.742 57.6387 305.661 60.2387 305.661 63.636C305.661 64.1213 305.557 64.416 305.349 64.52C305.175 64.624 304.742 64.676 304.049 64.676H286.941C286.871 64.9533 286.819 65.3 286.785 65.716C286.75 66.0973 286.733 66.5307 286.733 67.016C286.733 68.8187 286.941 70.4653 287.357 71.956C287.807 73.412 288.431 74.66 289.229 75.7C290.061 76.74 291.031 77.5547 292.141 78.144C293.285 78.6987 294.55 78.976 295.937 78.976C297.393 78.976 298.745 78.664 299.993 78.04C301.241 77.3813 302.523 76.324 303.841 74.868L305.453 76.324ZM296.873 62.284C297.566 62.284 298.121 62.2667 298.537 62.232C298.953 62.1973 299.265 62.128 299.473 62.024C299.681 61.92 299.819 61.7813 299.889 61.608C299.958 61.4 299.993 61.14 299.993 60.828C299.993 59.2333 299.473 57.968 298.433 57.032C297.427 56.0613 296.041 55.576 294.273 55.576C290.529 55.576 288.206 57.812 287.305 62.284H296.873Z" fill="#215374"/>
<path d="M267.664 65.768C265.688 66.5307 264.006 67.276 262.62 68.004C261.268 68.732 260.176 69.46 259.344 70.188C258.512 70.916 257.905 71.644 257.524 72.372C257.177 73.1 257.004 73.8453 257.004 74.608C257.004 75.752 257.385 76.688 258.148 77.416C258.91 78.144 259.916 78.508 261.164 78.508C262.065 78.508 262.897 78.2827 263.66 77.832C264.457 77.3813 265.15 76.7747 265.74 76.012C266.329 75.2147 266.797 74.296 267.144 73.256C267.49 72.1813 267.664 71.0547 267.664 69.876V65.768ZM267.664 63.532V61.4C267.664 57.1707 265.861 55.056 262.256 55.056C261.666 55.056 261.164 55.108 260.748 55.212C260.332 55.316 259.985 55.4893 259.708 55.732C259.43 55.9747 259.17 56.3213 258.928 56.772C258.72 57.2227 258.512 57.7773 258.304 58.436C257.922 59.4413 257.541 60.1173 257.16 60.464C256.813 60.776 256.293 60.932 255.6 60.932C253.866 60.932 253 60.0653 253 58.332C253 56.668 253.884 55.3853 255.652 54.484C257.42 53.548 259.933 53.08 263.192 53.08C266.658 53.08 269.12 53.704 270.576 54.952C272.032 56.1653 272.76 58.2453 272.76 61.192V72.84C272.76 76.792 273.54 78.768 275.1 78.768C275.585 78.768 276.053 78.716 276.504 78.612C276.954 78.4733 277.336 78.144 277.648 77.624L278.376 78.872C277.96 79.6693 277.197 80.3453 276.088 80.9C274.978 81.42 273.817 81.68 272.604 81.68C271.078 81.68 269.934 81.1947 269.172 80.224C268.444 79.2533 268.08 77.884 268.08 76.116H267.82C266.918 77.8147 265.67 79.1667 264.076 80.172C262.481 81.1427 260.713 81.628 258.772 81.628C256.588 81.628 254.872 81.0733 253.624 79.964C252.376 78.8547 251.752 77.364 251.752 75.492C251.752 74.66 251.89 73.8627 252.168 73.1C252.48 72.3373 252.965 71.6093 253.624 70.916C254.282 70.2227 255.149 69.5467 256.224 68.888C257.298 68.1947 258.616 67.5013 260.176 66.808L267.664 63.532Z" fill="#215374"/>
<path d="M219.016 68.94H220.94C221.183 70.5 221.633 71.904 222.292 73.152C222.985 74.4 223.835 75.4573 224.84 76.324C225.88 77.1907 227.059 77.8667 228.376 78.352C229.728 78.8027 231.184 79.028 232.744 79.028C235.309 79.028 237.337 78.4213 238.828 77.208C240.319 75.9947 241.064 74.348 241.064 72.268C241.064 71.4013 240.908 70.604 240.596 69.876C240.319 69.148 239.833 68.4547 239.14 67.796C238.447 67.1027 237.511 66.4267 236.332 65.768C235.188 65.1093 233.732 64.3987 231.964 63.636C229.815 62.7 228.012 61.7987 226.556 60.932C225.1 60.0653 223.939 59.164 223.072 58.228C222.205 57.292 221.581 56.304 221.2 55.264C220.853 54.1893 220.68 52.976 220.68 51.624C220.68 50.0293 220.957 48.556 221.512 47.204C222.101 45.852 222.916 44.6907 223.956 43.72C224.996 42.7147 226.227 41.952 227.648 41.432C229.069 40.8773 230.629 40.6 232.328 40.6C233.853 40.6 235.275 40.8427 236.592 41.328C237.909 41.8133 239.244 42.5933 240.596 43.668L241.948 41.328H243.144L243.716 51.676H241.792C240.96 48.8333 239.747 46.7187 238.152 45.332C236.592 43.9453 234.703 43.252 232.484 43.252C230.369 43.252 228.688 43.772 227.44 44.812C226.192 45.852 225.568 47.256 225.568 49.024C225.568 49.856 225.707 50.6187 225.984 51.312C226.261 51.9707 226.712 52.612 227.336 53.236C227.96 53.8253 228.775 54.432 229.78 55.056C230.785 55.6453 232.033 56.2693 233.524 56.928C236.089 58.072 238.221 59.1467 239.92 60.152C241.619 61.1227 242.971 62.1107 243.976 63.116C244.981 64.0867 245.692 65.1267 246.108 66.236C246.524 67.3107 246.732 68.524 246.732 69.876C246.732 71.6093 246.385 73.204 245.692 74.66C244.999 76.116 244.028 77.364 242.78 78.404C241.532 79.444 240.041 80.2587 238.308 80.848C236.575 81.4027 234.668 81.68 232.588 81.68C230.612 81.68 228.827 81.4027 227.232 80.848C225.672 80.2933 224.077 79.3573 222.448 78.04L220.992 80.588H219.796L219.016 68.94Z" fill="#215374"/>
<path fill-rule="evenodd" clip-rule="evenodd" d="M136 69C136 106.003 106.003 136 69 136C67.9866 136 66.9785 135.978 65.9761 135.933C66.1602 136.613 66.3566 137.288 66.565 137.958C67.3732 137.986 68.185 138 69 138C107.108 138 138 107.108 138 69C138 68.185 137.986 67.3732 137.958 66.565C137.288 66.3566 136.613 66.1602 135.933 65.9761C135.978 66.9785 136 67.9866 136 69ZM40.4546 129.632C17.7276 118.914 2 95.7936 2 69C2 31.9969 31.9969 2 69 2C95.7936 2 118.914 17.7276 129.632 40.4546C130.413 40.5373 131.19 40.6311 131.964 40.7358C121.168 16.7216 97.0366 0 69 0C30.8924 0 0 30.8924 0 69C0 97.0366 16.7216 121.168 40.7358 131.964C40.6311 131.19 40.5373 130.413 40.4546 129.632Z" fill="#215374"/>
<circle cx="121" cy="121" r="68" stroke="#215374" stroke-width="2"/>
<mask id="mask0_154_132" style="mask-type:alpha" maskUnits="userSpaceOnUse" x="113" y="120" width="68" height="64">
<path d="M113.5 184L120 120.5L180.5 140L166.5 161.5L148 175.5L113.5 184Z" fill="#D9D9D9"/>
</mask>
<g mask="url(#mask0_154_132)">
<circle cx="121" cy="121" r="51" stroke="#215374" stroke-width="2"/>
</g>
<path d="M0 168H24" stroke="#215374" stroke-width="2"/>
<path d="M0 176H24" stroke="#215374" stroke-width="2"/>
<path d="M0 184H24" stroke="#215374" stroke-width="2"/>
<path d="M0 156H26.1903C26.9769 156 27.4497 155.144 26.9916 154.504C22.6055 148.382 12.5169 138.5 0 138.5" stroke="#215374" stroke-width="2"/>
</svg>
