<svg width="190" height="190" viewBox="0 0 190 190" fill="none" xmlns="http://www.w3.org/2000/svg">
<path fill-rule="evenodd" clip-rule="evenodd" d="M136 69C136 106.003 106.003 136 69 136C67.9866 136 66.9785 135.978 65.9761 135.933C66.1602 136.613 66.3566 137.288 66.565 137.958C67.3732 137.986 68.185 138 69 138C107.108 138 138 107.108 138 69C138 68.185 137.986 67.3732 137.958 66.565C137.288 66.3566 136.613 66.1602 135.933 65.9761C135.978 66.9785 136 67.9866 136 69ZM40.4546 129.632C17.7276 118.914 2 95.7936 2 69C2 31.9969 31.9969 2 69 2C95.7936 2 118.914 17.7276 129.632 40.4546C130.413 40.5373 131.19 40.6311 131.964 40.7358C121.168 16.7216 97.0366 0 69 0C30.8924 0 0 30.8924 0 69C0 97.0366 16.7216 121.168 40.7358 131.964C40.6311 131.19 40.5373 130.413 40.4546 129.632Z" fill="#215374"/>
<circle cx="121" cy="121" r="68" stroke="#215374" stroke-width="2"/>
<mask id="mask0_159_153" style="mask-type:alpha" maskUnits="userSpaceOnUse" x="113" y="120" width="68" height="64">
<path d="M113.5 184L120 120.5L180.5 140L166.5 161.5L148 175.5L113.5 184Z" fill="#D9D9D9"/>
</mask>
<g mask="url(#mask0_159_153)">
<circle cx="121" cy="121" r="51" stroke="#215374" stroke-width="2"/>
</g>
<path d="M0 168H24" stroke="#215374" stroke-width="2"/>
<path d="M0 176H24" stroke="#215374" stroke-width="2"/>
<path d="M0 184H24" stroke="#215374" stroke-width="2"/>
<path d="M0 156H26.1903C26.9769 156 27.4497 155.144 26.9916 154.504C22.6055 148.382 12.5169 138.5 0 138.5" stroke="#215374" stroke-width="2"/>
</svg>
