<svg width="24" height="24" viewBox="0 0 24 24" fill="none" xmlns="http://www.w3.org/2000/svg">
<circle cx="12" cy="7" r="4.4" stroke="#215374" stroke-width="1.2"/>
<path d="M20.4 19C20.4 19.4328 20.235 19.7711 19.8981 20.0653C19.5402 20.3778 18.9804 20.6443 18.2077 20.8527C16.6621 21.2696 14.4816 21.4 12 21.4C9.51839 21.4 7.33794 21.2696 5.7923 20.8527C5.01962 20.6443 4.45978 20.3778 4.10195 20.0653C3.76502 19.7711 3.6 19.4328 3.6 19C3.6 18.5356 3.79164 17.9654 4.20556 17.3482C4.61585 16.7365 5.22248 16.113 5.98988 15.5526C7.52572 14.431 9.65364 13.6 12 13.6C14.3464 13.6 16.4743 14.431 18.0101 15.5526C18.7775 16.113 19.3841 16.7365 19.7944 17.3482C20.2084 17.9654 20.4 18.5356 20.4 19Z" stroke="#215374" stroke-width="1.2"/>
</svg>
